<svg xmlns="http://www.w3.org/2000/svg" width="18" height="18" viewBox="0 0 18 18" aria-hidden="true">
  <g fill="none" fill-rule="evenodd">
    <path d="M17.64 9.204c0-.638-.057-1.252-.164-1.84H9v3.481h4.844c-.209 1.125-.842 2.078-1.793 2.716v2.257h2.9c1.698-1.564 2.689-3.866 2.689-6.614z" fill="#4285F4"/>
    <path d="M9 18c2.43 0 4.469-.805 5.959-2.182l-2.9-2.257c-.805.54-1.835.86-3.059.86-2.353 0-4.345-1.59-5.058-3.726H.957v2.34C2.438 15.983 5.481 18 9 18z" fill="#34A853"/>
    <path d="M3.942 10.695A5.413 5.413 0 0 1 3.653 9c0-.588.101-1.159.289-1.695V4.965H.957A8.99 8.99 0 0 0 0 9c0 1.458.349 2.838.957 4.035l2.985-2.34z" fill="#FBBC05"/>
    <path d="M9 3.579c1.322 0 2.511.455 3.447 1.349l2.585-2.585C13.465.891 11.427 0 9 0 5.481 0 2.438 2.017.957 4.965l2.985 2.34C4.655 5.17 6.647 3.58 9 3.58z" fill="#EA4335"/>
  </g>
</svg>

